**ABCDEFGHIJKLMNOPQRSTUVWXYZabcdefghijklmnopqrstuvwxyz**************************
**PARASOLID !"#$%&'()*+,-./:;<=>?@[\]^_`{|}~0123456789**************************
**PART1;
MC=LENOVO-PC;
MC_MODEL=unknown;
MC_ID=unknown;
OS=Windows NT;
OS_RELEASE=6.1;
FRU=Unigraphics Solutions;
APPL=SolidEdge;
SITE=Huntsville, AL;
USER=Tom
FORMAT=text;
GUISE=transmit;
KEY=F:\3Dprinter\Hotend\Hotend cooler;
FILE=F:\3Dprinter\Hotend\Hotend cooler.x_t;
DATE=N, nov 28 13;
**PART2;
SCH=SCH_2600169_25001;
USFLD_SIZE=0;
**PART3;
**END_OF_HEADER*****************************************************************
T51 : TRANSMIT FILE created by modeller version 260016923 SCH_2600169_25001_1300
6189 0 12 29 CCCCCCCCCCCCCDI5 owner1040 0 CCCCCCCCCA16 index_map_offset0 0 1 dA9
 index_map82 0 A17 node_id_index_map82 0 A20 schema_embedding_map82 0 A5 child12
 0 A14 lowest_node_id0 0 1 dZ1 2059 2 3 0 4 0 0 1e3 1e-8 0 5 0 1 0 1 1 6 7 8 0 9
 10 0 0 0 0 0 0 0 81 255 3 2 1839 11 1 12 0 12 0 13 14 15 70 11 CI9 list_type0 0
 1 uI10 notransmit0 0 1 lCCCDCCDI12 finger_index0 0 1 dI12 finger_block1012 0 CZ
3 0 4 T1 0 0 16 20 1 16 16 30 255 4 1469 0 1 0 0 0 +-6e-4 0 0 -1 0 1224646799147
352e-31 13 255 6 54 0 1 0 17 0 0 18 0 51 255 7 327 0 19 20 0 0 --.0318 0 3747419
2053909e-31 1 0 0 .0125 0 0 -1 31 255 8 1810 0 10 21 0 0 +-.0456 691925441518256
e-33 0 -1 612323399573677e-31 0 -612323399573677e-31 -1 0 .002067 19 8 CCCCCCCA5
 owner12 0 Z9 602 0 1 18 0 22 V0 16 255 10 1807 23 ?24 0 25 8 0 0 1 91 255 23 0
 26 10 27 0 0 28 17 255 24 0 29 24 24 0 30 10 0 0 +16 25 1701 31 ?32 10 33 34 0
 0 1 91 31 0 35 25 36 0 0 37 17 32 0 38 32 32 0 39 25 0 0 +16 33 1483 0 ?40 25 4
1 42 0 0 1 31 34 1704 0 25 43 21 0 +-.014 0 0 1 0 0 0 0 -1 .0024585 31 43 1644 0
 44 42 34 0 --.018 0 0 -1 0 0 0 0 1 .001 31 21 1750 0 45 34 8 0 --.0451 0 0 1 -6
12323399573677e-31 0 612323399573677e-31 1 0 .001 16 45 1763 0 ?46 47 48 21 0 0
 1 17 46 0 49 46 46 0 50 45 0 0 +16 47 1660 0 ?51 52 45 53 0 0 1 16 48 1765 0 ?5
4 45 55 56 0 0 1 17 54 0 57 54 54 0 58 48 0 0 +16 55 1766 0 ?59 48 0 60 0 0 1 31
 56 1803 0 48 60 53 0 +-.0451 661309271539572e-33 0 -1 612323399573677e-31 0 -61
2323399573677e-31 -1 0 .002067 31 60 1804 0 55 0 56 0 +-.0501 96747097132641e-32
 0 1 -612323399573677e-31 0 -612323399573677e-31 -1 0 .002067 31 53 1698 0 47 56
 61 0 +0 0 0 -1 0 0 0 0 -1 .0024585 31 61 1697 0 52 53 62 0 +-.018 0 0 1 0 0 0 0
 -1 .0024585 16 52 1659 0 ?63 44 47 61 0 0 1 31 62 1522 0 64 61 65 0 +-.0343 0 0
 -1 0 0 0 0 1 .008 16 64 1492 0 ?66 67 68 62 0 0 1 31 65 1521 0 68 62 69 0 +-.03
55 0 0 -1 0 0 0 0 1 .008 16 68 1494 70 ?71 64 44 65 0 0 1 31 69 1386 0 72 65 73
 0 +-.0378 0 0 -1 0 0 0 1 0 .008 16 72 1350 0 ?74 75 76 69 0 0 1 31 73 1385 0 76
 69 77 0 +-.0408 0 0 -1 0 0 0 1 0 .008 16 76 1352 78 ?79 72 67 73 0 0 1 31 77 13
19 0 80 73 81 0 +-.0464 180023079474661e-32 20818995585505e-31 1 0 0 0 -1 0 .008
 16 80 1291 0 ?82 83 75 77 0 0 1 31 81 1318 0 75 77 84 0 +-.0501 202679045258887
e-32 20818995585505e-31 1 0 0 0 -1 0 .008 16 75 1288 85 ?86 80 72 81 0 0 1 31 84
 1257 0 87 81 88 0 +-.0408 -569460761603519e-33 0 1 0 0 0 -1 0 .006 16 87 1229 0
 ?89 90 83 84 0 0 1 31 88 1197 0 91 84 92 0 --.0204 0 0 -1 0 0 0 0 1 .0065 16 91
 1138 0 ?93 41 94 88 0 0 1 31 92 1196 0 90 88 95 0 --.0182 0 0 -1 0 0 0 0 1 .006
5 16 90 1162 0 ?96 97 87 92 0 0 1 31 95 1049 0 97 92 98 0 --.0012 0 0 -1 0 0 0 0
 1 .0075 16 97 967 0 ?99 100 90 95 0 0 1 31 98 1048 0 101 95 102 0 --.017 0 0 -1
 0 0 0 0 1 .0075 16 101 892 0 ?103 104 105 98 0 0 1 31 102 1047 0 104 98 106 0 -
-.0136 0 0 -1 0 0 0 0 1 .0075 16 104 905 0 ?107 108 101 102 0 0 1 31 106 1046 0
 100 102 109 0 --.0148 0 0 -1 0 0 0 0 1 .0075 16 100 961 0 ?110 111 97 106 0 0 1
 31 109 1045 0 108 106 112 0 --.0102 0 0 -1 0 0 0 0 1 .0075 16 108 917 0 ?113 11
4 104 109 0 0 1 31 112 1044 0 111 109 115 0 --.0114 0 0 -1 0 0 0 0 1 .0075 16 11
1 959 0 ?116 117 100 112 0 0 1 31 115 1043 0 114 112 118 0 --.0068 0 0 -1 0 0 0
 0 1 .0075 16 114 929 0 ?119 94 108 115 0 0 1 31 118 1042 0 117 115 120 0 --.008
 0 0 -1 0 0 0 0 1 .0075 16 117 957 0 ?121 122 111 118 0 0 1 31 120 1041 0 94 118
 123 0 --.0034 0 0 -1 0 0 0 0 1 .0075 16 94 941 0 ?124 91 114 120 0 0 1 31 123 1
040 0 122 120 125 0 --.0046 0 0 -1 0 0 0 0 1 .0075 16 122 955 0 ?126 127 117 123
 0 0 1 31 125 744 0 127 123 128 0 --.0216 0 0 -1 0 0 0 0 1 .0045 16 127 610 0 ?1
29 130 122 125 0 0 1 31 128 743 0 131 125 132 0 --.0238 0 0 -1 0 0 0 0 1 .0045 1
6 131 558 0 ?133 134 135 128 0 0 1 31 132 742 0 130 128 136 0 --.025 0 0 -1 0 0
 0 0 1 .0045 16 130 608 0 ?137 138 127 132 0 0 1 31 136 741 0 134 132 139 0 --.0
272 0 0 -1 0 0 0 0 1 .0045 16 134 570 0 ?140 105 131 136 0 0 1 31 139 740 0 138
 136 141 0 --.0284 0 0 -1 0 0 0 0 1 .0045 16 138 606 0 ?142 143 130 139 0 0 1 31
 141 739 0 105 139 144 0 --.0306 0 0 -1 0 0 0 0 1 .0045 16 105 582 0 ?145 101 13
4 141 0 0 1 31 144 738 0 143 141 146 0 --.0318 0 0 -1 0 0 0 0 1 .0045 16 143 604
 0 ?147 148 138 144 0 0 1 31 146 6 0 149 144 150 0 +-.0012 0 0 -1 0 0 0 1 0 .012
5 16 149 5 0 ?151 152 148 146 0 0 1 31 150 23 0 148 146 153 0 +0 0 0 -1 0 0 0 1
 0 .0125 16 148 19 154 ?155 149 143 150 0 0 1 31 153 79 0 152 150 156 0 +-.0034
 0 4163799117101e-31 -1 0 0 0 1 0 .0125 16 152 78 157 ?158 159 149 153 0 0 1 31
 156 83 0 159 153 160 0 +-.0046 0 4163799117101e-31 -1 0 0 0 1 0 .0125 16 159 82
 0 ?161 162 152 156 0 0 1 31 160 111 0 162 156 163 0 +-.0068 0 8327598234202e-31
 -1 0 0 0 1 0 .0125 16 162 110 164 ?165 166 159 160 0 0 1 31 163 115 0 166 160 1
67 0 +-.008 0 8327598234202e-31 -1 0 0 0 1 0 .0125 16 166 114 0 ?168 169 162 163
 0 0 1 31 167 143 0 169 163 170 0 +-.0102 0 12491397351303e-31 -1 0 0 0 1 0 .012
5 16 169 142 171 ?172 173 166 167 0 0 1 31 170 147 0 173 167 174 0 +-.0114 0 124
91397351303e-31 -1 0 0 0 1 0 .0125 16 173 146 0 ?175 176 169 170 0 0 1 31 174 17
5 0 176 170 177 0 +-.0136 0 16655196468404e-31 -1 0 0 0 1 0 .0125 16 176 174 178
 ?179 180 173 174 0 0 1 31 177 179 0 180 174 181 0 +-.0148 0 16655196468404e-31
 -1 0 0 0 1 0 .0125 16 180 178 0 ?182 183 176 177 0 0 1 31 181 207 0 183 177 184
 0 +-.017 0 20818995585505e-31 -1 0 0 0 1 0 .0125 16 183 206 185 ?186 187 180 18
1 0 0 1 31 184 211 0 187 181 188 0 +-.0182 0 20818995585505e-31 -1 0 0 0 1 0 .01
25 16 187 210 0 ?189 190 183 184 0 0 1 31 188 239 0 190 184 191 0 +-.0204 0 2498
2794702606e-31 -1 0 0 0 1 0 .0125 16 190 238 192 ?193 194 187 188 0 0 1 31 191 2
43 0 194 188 195 0 +-.0216 0 24982794702606e-31 -1 0 0 0 1 0 .0125 16 194 242 0
 ?196 197 190 191 0 0 1 31 195 271 0 197 191 198 0 +-.0238 0 29146593819707e-31
 -1 0 0 0 1 0 .0125 16 197 270 199 ?200 201 194 195 0 0 1 31 198 275 0 201 195 2
02 0 +-.025 0 29146593819707e-31 -1 0 0 0 1 0 .0125 16 201 274 0 ?203 204 197 19
8 0 0 1 31 202 303 0 204 198 205 0 +-.0272 0 33310392936808e-31 -1 0 0 0 1 0 .01
25 16 204 302 206 ?207 208 201 202 0 0 1 31 205 307 0 208 202 209 0 +-.0284 0 33
310392936808e-31 -1 0 0 0 1 0 .0125 16 208 306 0 ?210 211 204 205 0 0 1 31 209 3
35 0 211 205 212 0 +-.0306 0 37474192053909e-31 -1 0 0 0 1 0 .0125 16 211 334 21
3 ?214 135 208 209 0 0 1 31 212 339 0 135 209 215 0 +-.0318 0 37474192053909e-31
 -1 0 0 0 1 0 .0125 16 135 338 0 ?216 131 211 212 0 0 1 31 215 1282 0 83 212 217
 0 +-.0464 -2265596578422605e-34 0 1 0 0 0 0 -1 .006 16 83 1287 0 ?218 87 80 215
 0 0 1 31 217 1343 0 41 215 219 0 +-.0378 0 0 -1 0 0 0 0 1 .0045 16 41 1340 0 ?2
20 33 91 217 0 0 1 31 219 1479 0 67 217 42 0 +-.0355 0 0 -1 0 0 0 0 1 .0045 16 6
7 1491 0 ?221 76 64 219 0 0 1 31 42 1486 0 33 219 43 0 +-.0343 0 0 -1 0 0 0 0 1
 .0045 17 221 0 222 221 221 0 223 67 0 0 +15 255 222 1477 0 221 224 225 17 223 0
 226 223 223 0 221 67 0 0 -15 226 1514 0 223 227 228 14 255 227 1512 229 ?230 23
1 226 6 232 +0 0 230 231 22 15 228 1515 0 71 227 0 17 71 0 228 71 71 0 233 68 0
 0 +17 233 0 234 233 233 0 71 68 0 0 -15 234 1507 0 233 235 0 14 235 1503 236 ?2
31 237 238 6 239 +0 0 231 237 22 81 2 236 2020 240 235 241 0 242 243 244 0 14 23
1 1508 243 ?227 235 245 6 246 -0 0 227 235 22 14 237 216 242 ?235 247 248 6 249
 -0 0 235 247 22 15 238 1506 0 66 235 234 51 239 1518 0 235 232 250 0 +-.0343 0
 0 -1 0 0 .008 0 0 1 13 22 53 0 0 0 0 0 0 9 17 14 17 1811 251 ?252 0 253 6 254 -
255 255 252 0 22 81 2 251 1894 240 17 256 0 257 258 259 0 14 252 1705 258 ?260 1
7 261 6 262 -263 263 260 17 22 15 253 1795 0 58 17 29 51 254 1799 0 255 264 265
 0 +-.0501 96747097132641e-32 0 1 -612323399573677e-31 0 .002067 -61232339957367
7e-31 -1 0 14 255 1789 257 ?0 266 267 6 254 -17 17 0 266 22 81 2 257 1891 240 25
5 268 0 269 251 270 0 14 266 1779 271 ?255 263 57 6 264 -0 0 255 263 22 15 267 1
809 0 30 255 272 17 30 0 267 30 30 0 24 10 0 0 -15 272 1796 0 273 255 0 17 273 0
 272 273 273 0 59 55 0 0 -17 59 0 274 59 59 0 273 55 0 0 +15 274 1757 0 59 230 2
75 14 230 727 276 ?277 227 274 6 278 +0 0 277 227 22 15 275 1311 0 279 230 0 17
 279 0 275 279 279 0 86 75 0 0 -17 86 0 280 86 86 0 279 75 0 0 +15 280 1303 0 86
 277 0 14 277 1299 281 ?282 230 283 6 284 -0 0 282 230 22 81 2 281 2032 240 277
 285 0 276 286 287 0 14 282 1304 286 ?288 277 289 6 290 +0 0 288 277 22 15 283 1
302 0 291 277 280 51 284 1314 0 277 290 292 0 --.0464 180023079474661e-32 208189
95585505e-31 -1 612323399573677e-31 0 .008 -612323399573677e-31 -1 0 50 255 290
 1316 0 282 293 284 0 +-.0464 180023079474661e-32 20818995585505e-31 1 0 0 0 0 -
1 51 292 1252 0 288 284 294 0 --.0408 -569460761603519e-33 0 -1 612323399573677e
-31 0 .006 -612323399573677e-31 -1 0 14 288 1237 295 ?296 282 297 6 292 -0 0 296
 282 22 51 294 1192 0 298 292 299 0 --.0216 0 0 1 0 0 .0065 0 0 -1 14 298 1178 3
00 ?301 302 303 6 294 -0 0 301 302 22 51 299 1036 0 304 294 278 0 --.0182 0 0 1
 0 0 .0075 0 0 -1 14 304 977 305 ?306 307 308 6 299 -309 310 306 307 22 50 278 7
37 0 230 299 311 0 +-.0501 0 0 -1 612323399573677e-31 0 -612323399573677e-31 -1
 0 51 311 735 0 224 278 312 0 --.0501 0 0 1 0 0 .0045 0 0 -1 14 224 722 313 ?314
 315 222 6 311 -260 316 314 315 22 50 312 11 0 302 311 317 0 +-.0012 0 0 -1 0 0
 0 0 1 14 302 8 318 ?298 319 320 6 312 +0 0 298 319 22 50 317 22 0 306 312 321 0
 +0 0 0 -1 0 0 0 0 1 14 306 17 322 ?319 304 323 6 317 -0 0 319 304 22 51 321 28
 0 319 317 324 0 --.0012 0 0 1 0 0 .0125 0 0 -1 14 319 25 325 ?302 306 326 6 321
 -0 0 302 306 22 50 324 57 0 307 321 327 0 +-.0034 0 4163799117101e-31 -1 0 0 0
 0 1 14 307 56 328 ?304 329 330 6 324 -0 0 304 329 22 50 327 64 0 331 324 332 0
 +-.0046 0 4163799117101e-31 -1 0 0 0 0 1 14 331 63 333 ?329 309 334 6 327 +0 0
 329 309 22 51 332 71 0 329 327 335 0 --.0046 0 4163799117101e-31 1 0 0 .0125 0
 0 -1 14 329 70 336 ?307 331 337 6 332 -0 0 307 331 22 50 335 89 0 338 332 339 0
 +-.0068 0 8327598234202e-31 -1 0 0 0 0 1 14 338 88 340 ?309 341 342 6 335 -0 0
 309 341 22 50 339 96 0 343 335 344 0 +-.008 0 8327598234202e-31 -1 0 0 0 0 1 14
 343 95 345 ?341 346 347 6 339 +0 0 341 346 22 51 344 103 0 341 339 348 0 --.008
 0 8327598234202e-31 1 0 0 .0125 0 0 -1 14 341 102 349 ?338 343 350 6 344 -0 0 3
38 343 22 50 348 121 0 351 344 352 0 +-.0102 0 12491397351303e-31 -1 0 0 0 0 1 1
4 351 120 353 ?346 354 355 6 348 -0 0 346 354 22 50 352 128 0 356 348 357 0 +-.0
114 0 12491397351303e-31 -1 0 0 0 0 1 14 356 127 358 ?354 359 360 6 352 +0 0 354
 359 22 51 357 135 0 354 352 361 0 --.0114 0 12491397351303e-31 1 0 0 .0125 0 0
 -1 14 354 134 362 ?351 356 363 6 357 -0 0 351 356 22 50 361 153 0 364 357 365 0
 +-.0136 0 16655196468404e-31 -1 0 0 0 0 1 14 364 152 366 ?359 367 368 6 361 -0
 0 359 367 22 50 365 160 0 369 361 370 0 +-.0148 0 16655196468404e-31 -1 0 0 0 0
 1 14 369 159 371 ?367 310 372 6 365 +0 0 367 310 22 51 370 167 0 367 365 373 0
 --.0148 0 16655196468404e-31 1 0 0 .0125 0 0 -1 14 367 166 374 ?364 369 375 6 3
70 -0 0 364 369 22 50 373 185 0 376 370 377 0 +-.017 0 20818995585505e-31 -1 0 0
 0 0 1 14 376 184 378 ?310 379 380 6 373 -0 0 310 379 22 50 377 192 0 379 373 38
1 0 +-.0182 0 20818995585505e-31 -1 0 0 0 0 1 14 379 191 382 ?376 383 384 6 377
 +0 0 376 383 22 51 381 199 0 383 377 249 0 --.0182 0 20818995585505e-31 1 0 0 .
0125 0 0 -1 14 383 198 385 ?379 260 386 6 381 -0 0 379 260 22 50 249 217 0 237 3
81 387 0 +-.0204 0 24982794702606e-31 -1 0 0 0 0 1 50 387 224 0 388 249 389 0 +-
.0216 0 24982794702606e-31 -1 0 0 0 0 1 14 388 223 390 ?247 316 391 6 387 +0 0 2
47 316 22 51 389 231 0 247 387 392 0 --.0216 0 24982794702606e-31 1 0 0 .0125 0
 0 -1 14 247 230 393 ?237 388 394 6 389 -0 0 237 388 22 50 392 249 0 395 389 396
 0 +-.0238 0 29146593819707e-31 -1 0 0 0 0 1 14 395 248 397 ?316 398 399 6 392 -
0 0 316 398 22 50 396 256 0 400 392 401 0 +-.025 0 29146593819707e-31 -1 0 0 0 0
 1 14 400 255 402 ?398 403 404 6 396 +0 0 398 403 22 51 401 263 0 398 396 405 0
 --.025 0 29146593819707e-31 1 0 0 .0125 0 0 -1 14 398 262 406 ?395 400 407 6 40
1 -0 0 395 400 22 50 405 281 0 408 401 409 0 +-.0272 0 33310392936808e-31 -1 0 0
 0 0 1 14 408 280 410 ?403 411 412 6 405 -0 0 403 411 22 50 409 288 0 413 405 41
4 0 +-.0284 0 33310392936808e-31 -1 0 0 0 0 1 14 413 287 415 ?411 416 417 6 409
 +0 0 411 416 22 51 414 295 0 411 409 418 0 --.0284 0 33310392936808e-31 1 0 0 .
0125 0 0 -1 14 411 294 419 ?408 413 420 6 414 -0 0 408 413 22 50 418 313 0 421 4
14 20 0 +-.0306 0 37474192053909e-31 -1 0 0 0 0 1 14 421 312 422 ?416 19 423 6 4
18 -0 0 416 19 22 50 20 320 0 301 418 7 0 +-.0318 0 37474192053909e-31 -1 0 0 0
 0 1 14 301 319 424 ?19 298 425 6 20 +0 0 19 298 22 81 2 424 1975 240 301 426 0
 300 427 428 0 14 19 326 427 ?421 301 429 6 7 -0 0 421 301 22 15 425 589 0 147 3
01 430 17 147 0 425 147 147 0 431 143 0 0 +15 430 325 0 216 301 0 17 216 0 430 2
16 216 0 432 135 0 0 +17 432 0 429 432 432 0 216 135 0 0 -15 429 332 0 432 19 43
3 15 433 333 0 214 19 0 17 214 0 433 214 214 0 434 211 0 0 +17 434 0 435 434 434
 0 214 211 0 0 -15 435 318 0 434 421 0 17 431 0 436 431 431 0 147 143 0 0 -15 43
6 725 0 431 260 437 14 260 1487 438 ?383 252 436 6 311 -416 224 383 252 22 15 43
7 1485 0 439 260 0 17 439 0 437 439 439 0 40 33 0 0 -17 40 0 245 40 40 0 439 33
 0 0 +15 245 1510 0 40 231 440 15 440 1511 0 441 231 0 17 441 0 440 441 441 0 66
 64 0 0 -17 66 0 238 66 66 0 441 64 0 0 +81 2 438 1900 240 260 442 0 258 385 443
 0 14 416 632 444 ?413 421 445 6 311 -403 260 413 421 22 81 2 444 1984 240 416 4
46 0 422 415 447 0 15 445 635 0 448 416 449 14 403 642 450 ?400 408 451 6 311 -3
16 416 400 408 22 81 2 450 1996 240 403 452 0 410 402 453 0 15 451 645 0 454 403
 455 14 316 652 456 ?388 395 457 6 311 -224 403 388 395 22 81 2 456 2008 240 316
 458 0 397 390 459 0 15 457 655 0 460 316 461 17 460 0 457 460 460 0 129 127 0 0
 -15 461 656 0 133 316 0 17 133 0 461 133 133 0 462 131 0 0 +17 462 0 399 462 46
2 0 133 131 0 0 -15 399 560 0 462 395 463 15 463 254 0 464 395 0 17 464 0 463 46
4 464 0 200 197 0 0 -17 200 0 465 200 200 0 464 197 0 0 +15 465 269 0 200 398 0
 17 129 0 466 129 129 0 460 127 0 0 +15 466 553 0 129 388 0 80 255 2 240 467 468
 8014 0 0 0 0 3 5 0 0 0 FFFFTFFFFFFFFF2 1 81 1 458 2007 469 316 470 456 471 472
 473 81 2 397 2005 240 395 471 0 406 456 474 0 81 2 390 2011 240 388 472 0 456 3
93 475 0 83 255 1 459 .100000001490116 81 1 472 2010 469 388 476 390 458 477 478
 81 2 393 2014 240 247 477 0 390 242 479 0 83 1 475 .100000001490116 81 1 477 20
13 469 247 480 393 472 481 482 81 2 242 2017 240 237 481 0 393 236 483 0 83 1 47
9 .100000001490116 81 1 481 2016 469 237 484 242 477 241 485 83 1 483 .100000001
490116 80 1 469 240 486 8015 0 0 0 0 3 5 0 0 0 FFFFTFFFFFFFFF2 81 1 484 2015 487
 237 488 481 480 489 490 81 1 241 2019 469 235 489 236 481 491 492 83 1 485 0 81
 1 489 2018 487 235 493 241 484 494 495 81 1 491 2022 469 231 494 243 241 496 49
7 83 1 492 0 81 1 494 2021 487 231 498 491 489 499 500 81 2 243 2023 240 231 491
 0 236 229 501 0 81 1 496 2025 469 227 499 229 491 502 503 83 1 497 0 81 1 499 2
024 487 227 504 496 494 505 506 81 2 229 2026 240 227 496 0 243 276 507 0 81 1 5
02 2028 469 230 505 276 496 285 508 83 1 503 0 81 1 505 2027 487 230 509 502 499
 510 511 81 2 276 2029 240 230 502 0 229 281 512 0 81 1 285 2031 469 277 510 281
 502 513 514 83 1 508 0 81 1 510 2030 487 277 515 285 505 516 517 81 1 513 2034
 469 282 516 286 285 518 519 83 1 514 0 81 1 516 2033 487 282 520 513 510 521 52
2 81 2 286 2035 240 282 513 0 281 295 523 0 81 1 518 2037 469 288 521 295 513 52
4 525 83 1 519 0 81 1 521 2036 487 288 526 518 516 527 528 81 2 295 2038 240 288
 518 0 286 529 530 0 81 1 524 2040 469 296 527 529 518 531 532 83 1 525 0 14 296
 1374 529 ?533 288 534 6 535 +0 0 533 288 22 81 1 527 2039 487 296 536 524 521 5
37 538 81 2 529 2041 240 296 524 0 295 539 540 0 81 1 531 2043 469 533 537 539 5
24 541 542 83 1 532 0 14 533 1365 539 ?315 296 543 6 293 +0 0 315 296 22 81 1 53
7 2042 487 533 544 531 527 545 546 81 2 539 2044 240 533 531 0 529 547 548 0 81
 1 541 2046 469 315 545 547 531 549 550 83 1 542 0 14 315 1370 547 ?224 533 551
 6 250 -0 0 224 533 22 81 1 545 2045 487 315 552 541 537 553 554 81 2 547 2047 2
40 315 541 0 539 313 555 0 81 1 549 2049 469 224 553 313 541 556 557 83 1 550 0
 81 1 553 2048 487 224 558 549 545 559 560 81 2 313 2050 240 224 549 0 547 561 5
62 0 81 1 556 2052 469 314 559 561 549 563 564 83 1 557 0 14 314 1584 561 ?565 2
24 49 6 566 -0 0 565 224 22 81 1 559 2051 487 314 567 556 553 568 569 81 2 561 2
053 240 314 556 0 313 570 571 0 81 1 563 2055 469 565 568 570 556 572 573 83 1 5
64 0 14 565 1673 570 ?263 314 574 6 265 -0 0 263 314 22 81 1 568 2054 487 565 57
5 563 559 576 577 81 2 570 2056 240 565 563 0 561 271 578 0 81 1 572 2058 469 26
6 576 271 563 0 579 83 1 573 0 81 1 576 2057 487 266 580 572 568 0 581 81 2 271
 2059 240 266 572 0 570 0 582 0 83 1 579 0 83 1 582 .100000001490116 80 1 487 0
 583 8001 0 0 0 0 3 5 0 0 0 FFFFTFTFFFFFFF2 81 1 580 1843 584 266 28 576 567 585
 0 83 3 581 .643137276172638 .678431391716003 .69803923368454 80 1 584 586 587 9
000 1 1 1 1 1 1 1 1 0 FFFFTFTTFFFFFF1 91 28 0 26 266 588 580 23 589 81 1 567 184
2 584 314 590 559 509 580 0 81 1 585 1844 584 255 591 592 580 0 0 91 591 0 26 25
5 593 585 589 0 81 1 592 1884 594 255 585 595 0 596 597 80 1 594 598 599 9000 0
 0 0 0 3 5 0 0 0 FFTTTTTTFFFFTF1 81 1 595 1889 487 255 592 268 600 601 602 81 1
 596 1885 594 263 603 600 592 0 604 82 255 5 597 2 -2147483598 0 0 0 14 263 1683
 269 ?266 565 605 6 262 -252 252 266 565 22 81 1 603 1737 584 263 606 596 575 60
7 0 81 1 600 1886 487 263 596 608 0 595 609 82 5 604 2 -2147483598 0 0 0 81 1 60
8 1887 469 263 600 269 0 268 610 83 3 609 .184313729405403 .749019622802734 .580
392181873322 81 2 269 1888 240 263 608 0 0 257 611 0 81 1 268 1890 469 255 595 2
57 608 256 612 83 1 610 0 81 1 256 1893 469 17 601 251 268 613 614 83 1 612 0 81
 1 601 1892 487 17 607 256 595 615 616 81 1 613 1896 469 252 615 258 256 442 617
 83 1 614 0 81 1 615 1895 487 252 618 613 601 619 620 81 2 258 1897 240 252 613
 0 251 438 621 0 81 1 442 1899 469 260 619 438 613 622 623 83 1 617 0 81 1 619 1
898 487 260 624 442 615 625 626 81 1 622 1902 469 383 625 385 442 627 628 83 1 6
23 0 81 1 625 1901 487 383 629 622 619 630 631 81 2 385 1903 240 383 622 0 438 3
82 632 0 81 1 627 1905 469 379 630 382 622 633 634 83 1 628 0 81 1 630 1904 487
 379 635 627 625 636 637 81 2 382 1906 240 379 627 0 385 378 638 0 81 1 633 1908
 469 376 636 378 627 639 640 83 1 634 0 81 1 636 1907 487 376 641 633 630 642 64
3 81 2 378 1909 240 376 633 0 382 644 645 0 81 1 639 1911 469 310 642 644 633 64
6 647 83 1 640 0 14 310 1022 644 ?369 376 648 6 299 -304 359 369 376 22 81 1 642
 1910 487 310 649 639 636 650 651 81 2 644 1912 240 310 639 0 378 371 652 0 81 1
 646 1914 469 369 650 371 639 653 654 83 1 647 0 81 1 650 1913 487 369 655 646 6
42 656 657 81 2 371 1915 240 369 646 0 644 374 658 0 81 1 653 1917 469 367 656 3
74 646 659 660 83 1 654 0 81 1 656 1916 487 367 661 653 650 662 663 81 2 374 191
8 240 367 653 0 371 366 664 0 81 1 659 1920 469 364 662 366 653 665 666 83 1 660
 0 81 1 662 1919 487 364 667 659 656 668 669 81 2 366 1921 240 364 659 0 374 670
 671 0 81 1 665 1923 469 359 668 670 659 672 673 83 1 666 0 14 359 1007 670 ?356
 364 674 6 299 -310 346 356 364 22 81 1 668 1922 487 359 675 665 662 676 677 81
 2 670 1924 240 359 665 0 366 358 678 0 81 1 672 1926 469 356 676 358 665 679 68
0 83 1 673 0 81 1 676 1925 487 356 681 672 668 682 683 81 2 358 1927 240 356 672
 0 670 362 684 0 81 1 679 1929 469 354 682 362 672 685 686 83 1 680 0 81 1 682 1
928 487 354 687 679 676 688 689 81 2 362 1930 240 354 679 0 358 353 690 0 81 1 6
85 1932 469 351 688 353 679 691 692 83 1 686 0 81 1 688 1931 487 351 693 685 682
 694 695 81 2 353 1933 240 351 685 0 362 696 697 0 81 1 691 1935 469 346 694 696
 685 698 699 83 1 692 0 14 346 997 696 ?343 351 700 6 299 -359 309 343 351 22 81
 1 694 1934 487 346 701 691 688 702 703 81 2 696 1936 240 346 691 0 353 345 704
 0 81 1 698 1938 469 343 702 345 691 705 706 83 1 699 0 81 1 702 1937 487 343 70
7 698 694 708 709 81 2 345 1939 240 343 698 0 696 349 710 0 81 1 705 1941 469 34
1 708 349 698 711 712 83 1 706 0 81 1 708 1940 487 341 713 705 702 714 715 81 2
 349 1942 240 341 705 0 345 340 716 0 81 1 711 1944 469 338 714 340 705 717 718
 83 1 712 0 81 1 714 1943 487 338 719 711 708 720 721 81 2 340 1945 240 338 711
 0 349 722 723 0 81 1 717 1947 469 309 720 722 711 724 725 83 1 718 0 14 309 987
 722 ?331 338 726 6 299 -346 304 331 338 22 81 1 720 1946 487 309 727 717 714 72
8 729 81 2 722 1948 240 309 717 0 340 333 730 0 81 1 724 1950 469 331 728 333 71
7 731 732 83 1 725 0 81 1 728 1949 487 331 733 724 720 734 735 81 2 333 1951 240
 331 724 0 722 336 736 0 81 1 731 1953 469 329 734 336 724 737 738 83 1 732 0 81
 1 734 1952 487 329 739 731 728 740 741 81 2 336 1954 240 329 731 0 333 328 742
 0 81 1 737 1956 469 307 740 328 731 743 744 83 1 738 0 81 1 740 1955 487 307 74
5 737 734 746 747 81 2 328 1957 240 307 737 0 336 305 748 0 81 1 743 1959 469 30
4 746 305 737 749 750 83 1 744 0 81 1 746 1958 487 304 751 743 740 752 753 81 2
 305 1960 240 304 743 0 328 322 754 0 81 1 749 1962 469 306 752 322 743 755 756
 83 1 750 0 81 1 752 1961 487 306 757 749 746 758 759 81 2 322 1963 240 306 749
 0 305 325 760 0 81 1 755 1965 469 319 758 325 749 761 762 83 1 756 0 81 1 758 1
964 487 319 763 755 752 764 765 81 2 325 1966 240 319 755 0 322 318 766 0 81 1 7
61 1968 469 302 764 318 755 767 768 83 1 762 0 81 1 764 1967 487 302 769 761 758
 770 771 81 2 318 1969 240 302 761 0 325 300 772 0 81 1 767 1971 469 298 770 300
 761 426 773 83 1 768 0 81 1 770 1970 487 298 774 767 764 775 776 81 2 300 1972
 240 298 767 0 318 424 777 0 81 1 426 1974 469 301 775 424 767 778 779 83 1 773
 0 81 1 775 1973 487 301 780 426 770 781 782 81 1 778 1977 469 19 781 427 426 78
3 784 83 1 779 0 81 1 781 1976 487 19 785 778 775 786 787 81 2 427 1978 240 19 7
78 0 424 422 788 0 81 1 783 1980 469 421 786 422 778 446 789 83 1 784 0 81 1 786
 1979 487 421 790 783 781 791 792 81 2 422 1981 240 421 783 0 427 444 793 0 81 1
 446 1983 469 416 791 444 783 794 795 83 1 789 0 81 1 791 1982 487 416 796 446 7
86 797 798 81 1 794 1986 469 413 797 415 446 799 800 83 1 795 0 81 1 797 1985 48
7 413 801 794 791 802 803 81 2 415 1987 240 413 794 0 444 419 804 0 81 1 799 198
9 469 411 802 419 794 805 806 83 1 800 0 81 1 802 1988 487 411 807 799 797 808 8
09 81 2 419 1990 240 411 799 0 415 410 810 0 81 1 805 1992 469 408 808 410 799 4
52 811 83 1 806 0 81 1 808 1991 487 408 812 805 802 813 814 81 2 410 1993 240 40
8 805 0 419 450 815 0 81 1 452 1995 469 403 813 450 805 816 817 83 1 811 0 81 1
 813 1994 487 403 818 452 808 819 820 81 1 816 1998 469 400 819 402 452 821 822
 83 1 817 0 81 1 819 1997 487 400 823 816 813 824 825 81 2 402 1999 240 400 816
 0 450 406 826 0 81 1 821 2001 469 398 824 406 816 471 827 83 1 822 0 81 1 824 2
000 487 398 828 821 819 829 830 81 2 406 2002 240 398 821 0 402 397 831 0 81 1 4
71 2004 469 395 829 397 821 458 832 83 1 827 0 81 1 829 2003 487 395 833 471 824
 470 834 83 1 832 0 81 1 833 868 584 395 835 829 823 818 0 81 1 470 2006 487 316
 836 458 829 476 837 83 3 834 .643137276172638 .678431391716003 .69803923368454
 81 1 836 866 584 316 838 470 739 823 0 81 1 476 2009 487 388 839 472 470 480 84
0 83 3 837 .643137276172638 .678431391716003 .69803923368454 81 1 839 1215 584 3
88 841 476 774 488 0 81 1 480 2012 487 247 842 477 476 484 843 83 3 840 .6431372
76172638 .678431391716003 .69803923368454 81 1 842 455 584 247 844 480 828 629 0
 83 3 843 .643137276172638 .678431391716003 .69803923368454 91 844 0 845 247 846
 842 0 841 81 1 828 452 584 398 847 824 807 842 0 81 1 629 458 584 383 848 625 8
42 661 0 91 848 0 849 383 850 629 0 851 81 1 661 461 584 367 852 656 629 687 0 9
1 852 0 853 367 854 661 0 855 81 1 687 464 584 354 856 682 661 713 0 91 856 0 85
7 354 858 687 0 859 81 1 713 467 584 341 860 708 687 739 0 91 860 0 861 341 862
 713 0 863 81 1 739 470 584 329 864 734 713 836 0 91 864 0 865 329 866 739 0 867
 90 255 865 351 868 1 869 861 9 870 81 1 866 350 871 329 872 864 873 874 875 91
 867 0 865 331 873 733 864 870 81 1 873 347 871 331 876 867 877 866 878 81 1 733
 1126 584 331 867 728 727 745 0 91 870 0 865 307 877 745 867 0 81 1 877 344 871
 307 879 870 880 873 881 81 1 745 1127 584 307 870 740 733 751 0 81 1 751 1128 5
84 304 882 746 745 769 0 81 1 882 1111 871 304 883 751 884 885 886 81 1 769 1130
 584 302 887 764 751 635 0 91 887 0 888 302 889 769 763 890 81 1 635 1212 584 37
9 851 630 769 774 0 91 851 0 849 379 891 635 848 892 81 1 774 1214 584 298 885 7
70 635 839 0 81 1 885 1208 871 298 893 774 882 894 895 80 1 871 896 897 9000 0 0
 0 0 3 6 0 0 0 FFFFTFFFFFFFFF1 81 3 893 1205 898 298 0 885 883 899 900 901 0 81
 1 894 1269 871 288 899 526 885 902 903 82 1 895 4292 81 3 899 1264 898 288 0 89
4 893 904 905 906 0 81 1 526 1336 584 288 894 521 488 515 0 81 1 902 1330 871 27
7 904 515 894 907 908 82 1 903 4402 81 3 904 1326 898 277 0 902 899 909 910 911
 0 81 1 515 1337 584 277 902 510 526 520 0 81 1 907 1331 871 282 909 520 902 912
 913 82 1 908 4770 81 3 909 1328 898 282 0 907 904 914 915 916 0 81 1 520 1338 5
84 282 907 516 515 544 0 81 1 912 1345 871 224 0 914 907 917 918 82 1 913 4770 8
1 3 914 1346 898 224 912 558 909 919 920 921 0 81 1 917 1398 871 533 919 544 912
 922 923 82 1 918 3883 81 3 919 1392 898 533 0 917 914 924 925 926 0 81 1 544 14
06 584 533 917 537 520 552 0 81 1 922 1399 871 315 924 552 917 927 928 82 1 923
 4973 81 3 924 1394 898 315 0 922 919 929 930 931 0 81 1 552 1407 584 315 922 54
5 544 536 0 81 1 927 1400 871 296 929 536 922 932 933 82 1 928 4973 81 3 929 139
6 898 296 0 927 924 934 935 936 0 81 1 536 1408 584 296 927 527 552 624 0 81 1 9
32 1488 871 260 0 934 927 937 938 82 1 933 4973 81 3 934 1489 898 260 932 624 92
9 939 940 941 0 81 1 937 1535 871 235 939 493 932 942 943 82 1 938 3883 81 3 939
 1528 898 235 0 937 934 944 945 946 0 81 1 493 1544 584 235 937 489 624 498 0 81
 1 942 1536 871 231 944 498 937 947 948 82 1 943 5308 81 3 944 1531 898 231 0 94
2 939 949 950 951 0 81 1 498 1545 584 231 942 494 493 504 0 81 1 947 1537 871 22
7 949 504 942 952 953 82 1 948 5308 81 3 949 1533 898 227 0 947 944 954 955 956
 0 81 1 504 1546 584 227 947 499 498 558 0 81 1 952 1586 871 314 954 957 947 958
 959 82 1 953 5308 81 3 954 1589 898 314 0 952 949 960 961 962 0 81 5 957 1600 9
63 314 952 590 0 964 965 966 967 0 968 81 1 958 1664 871 565 0 960 952 969 970 8
2 1 959 5449 81 3 960 1662 898 565 958 37 954 971 972 973 0 81 1 969 1707 871 25
2 0 971 958 974 975 82 1 970 5142 81 3 971 1710 898 252 969 976 960 977 978 979
 0 81 1 974 1715 871 263 977 964 969 980 981 82 1 975 5142 81 3 977 1711 898 263
 0 974 971 982 983 984 0 81 5 964 1721 963 263 974 606 957 976 985 986 987 988 9
89 81 1 980 1770 871 266 0 588 974 990 991 82 1 981 5142 81 3 588 1768 898 266 9
80 28 982 992 993 994 0 81 1 990 1813 871 17 0 992 980 995 996 82 1 991 4720 81
 3 992 1816 898 17 990 997 588 998 999 1000 0 81 1 995 1821 871 255 998 593 990
 0 1001 82 1 996 4720 81 3 998 1817 898 255 0 995 992 1002 1003 1004 0 81 5 593
 1827 963 255 995 591 976 997 1005 1006 1007 1008 1009 82 1 1001 4720 80 5 963 1
010 1011 9000 2 2 2 2 3 5 0 0 0 FFFFTFFFFFFFFF1 1 2 10 7 81 5 976 1722 963 252 9
71 1012 964 593 1013 1014 1015 1016 1017 81 5 997 1828 963 17 992 589 593 0 1018
 1019 1020 1021 1022 82 1 1005 8 82 24 1006 0 3 1 3 0 0 3 0 1 1 1 1 2 1 1 1 16 1
 1789 1 1811 0 0 0 83 20 1007 .005 .0127 .0127 82 .0127 .0127 0 .005 4.5 0 5 4.1
34 4.019 .1 0 0 0 .04363323129985825 .1 1 98 255 2 1008 77 53 87 255 2 1009 -.05
01 96747097132641e-32 0 -1 612323399573677e-31 0 91 589 0 26 17 997 607 28 591 8
2 1 1018 8 82 24 1019 0 3 1 3 0 0 3 0 1 1 1 1 2 1 2 1 16 1 1789 1 1811 0 0 0 83
 20 1020 .005 .0127 .0127 82 .0127 .0127 0 .005 4.5 0 5 4.134 4.019 .1 0 0 0 .04
363323129985825 .1 1 98 2 1021 77 53 87 2 1022 -.0501 96747097132641e-32 0 -1 61
2323399573677e-31 0 90 26 1829 1023 1 1024 1025 9 591 81 1 607 1840 584 17 589 6
01 603 509 0 81 1 509 1841 584 230 1026 505 607 567 0 81 1 1026 845 871 230 1027
 509 1028 1029 1030 81 3 1027 833 898 230 0 1026 1031 1032 1033 1034 0 81 1 1028
 843 871 416 1031 796 1035 1026 1036 81 1 1029 1107 871 310 1032 649 1026 1037 1
038 82 1 1030 3883 81 3 1032 1097 898 310 0 1029 1027 1039 1040 1041 0 81 1 649
 1116 584 310 1029 642 641 655 0 81 1 1037 1108 871 359 1039 675 1029 1042 1043
 82 1 1038 4134 81 3 1039 1099 898 359 0 1037 1032 1044 1045 1046 0 81 1 675 111
9 584 359 1037 668 667 681 0 81 1 1042 1109 871 346 1044 701 1037 884 1047 82 1
 1043 4134 81 3 1044 1101 898 346 0 1042 1039 1048 1049 1050 0 81 1 701 1122 584
 346 1042 694 693 707 0 81 1 884 1110 871 309 1048 727 1042 882 1051 82 1 1047 4
134 81 3 1048 1103 898 309 0 884 1044 883 1052 1053 0 81 1 727 1125 584 309 884
 720 719 733 0 82 1 1051 4134 81 1 719 1124 584 338 1054 714 707 727 0 91 1054 0
 861 338 874 719 863 0 81 1 707 1123 584 343 863 702 701 719 0 91 863 0 861 343
 1055 707 860 1054 90 861 362 1056 1 865 857 9 1054 81 1 1055 358 871 343 1057 8
63 874 862 1058 81 3 1057 356 898 343 0 1055 1059 1060 1061 1062 0 81 1 874 355
 871 338 1059 1054 866 1055 1063 81 1 862 361 871 341 1060 860 1055 1064 1065 82
 1 1058 3702 81 3 1060 359 898 341 0 862 1057 1066 1067 1068 0 81 1 1064 366 871
 351 1066 1069 862 1070 1071 82 1 1065 3702 81 3 1066 364 898 351 0 1064 1060 10
72 1073 1074 0 91 1069 0 857 351 1064 693 859 0 81 1 1070 369 871 356 1072 859 1
064 858 1075 82 1 1071 3702 81 3 1072 367 898 356 0 1070 1066 1076 1077 1078 0 9
1 859 0 857 356 1070 681 856 1069 81 1 858 372 871 354 1076 856 1070 1079 1080 8
2 1 1075 3702 81 3 1076 370 898 354 0 858 1072 1081 1082 1083 0 81 1 1079 377 87
1 364 1081 1084 858 1085 1086 82 1 1080 3702 81 3 1081 375 898 364 0 1079 1076 1
087 1088 1089 0 91 1084 0 853 364 1079 667 855 0 81 1 1085 380 871 369 1087 855
 1079 854 1090 82 1 1086 3702 81 3 1087 378 898 369 0 1085 1081 1091 1092 1093 0
 91 855 0 853 369 1085 655 852 1084 81 1 854 383 871 367 1091 852 1085 1094 1095
 82 1 1090 3702 81 3 1091 381 898 367 0 854 1087 1096 1097 1098 0 81 1 1094 388
 871 376 1096 892 854 891 1099 82 1 1095 3702 81 3 1096 386 898 376 0 1094 1091
 1100 1101 1102 0 91 892 0 849 376 1094 641 851 0 81 1 891 391 871 379 1100 851
 1094 850 1103 82 1 1099 3702 81 3 1100 389 898 379 0 891 1096 1104 1105 1106 0
 81 1 850 394 871 383 1104 848 891 1107 1108 82 1 1103 3702 81 3 1104 392 898 38
3 0 850 1100 1109 1110 1111 0 81 1 1107 399 871 237 1109 1112 850 1113 1114 82 1
 1108 3702 81 3 1109 397 898 237 0 1107 1104 1115 1116 1117 0 91 1112 0 845 237
 1107 488 841 0 81 1 1113 402 871 388 1115 841 1107 846 1118 82 1 1114 3702 81 3
 1115 400 898 388 0 1113 1109 1119 1120 1121 0 91 841 0 845 388 1113 839 844 111
2 81 1 846 405 871 247 1119 844 1113 1122 1123 82 1 1118 3702 81 3 1119 403 898
 247 0 846 1115 1124 1125 1126 0 81 1 1122 410 871 395 1124 835 846 1127 1128 82
 1 1123 3702 81 3 1124 408 898 395 0 1122 1119 1129 1130 1131 0 91 835 0 1132 39
5 1122 833 1133 0 81 1 1127 413 871 400 1129 1133 1122 1134 1135 82 1 1128 3702
 81 3 1129 411 898 400 0 1127 1124 1136 1137 1138 0 91 1133 0 1132 400 1127 823
 847 835 81 1 1134 416 871 398 1136 847 1127 1139 1140 82 1 1135 3702 81 3 1136
 414 898 398 0 1134 1129 1141 1142 1143 0 91 847 0 1132 398 1134 828 0 1133 81 1
 1139 421 871 408 1141 1144 1134 1145 1146 82 1 1140 3702 81 3 1141 419 898 408
 0 1139 1136 1147 1148 1149 0 91 1144 0 1150 408 1139 812 1151 0 81 1 1145 424 8
71 413 1147 1151 1139 1152 1153 82 1 1146 3702 81 3 1147 422 898 413 0 1145 1141
 1154 1155 1156 0 91 1151 0 1150 413 1145 801 1157 1144 81 1 1152 427 871 411 11
54 1157 1145 1158 1159 82 1 1153 3702 81 3 1154 425 898 411 0 1152 1147 1160 116
1 1162 0 91 1157 0 1150 411 1152 807 0 1151 81 1 1158 432 871 421 1160 1163 1152
 1164 1165 82 1 1159 3702 81 3 1160 430 898 421 0 1158 1154 1166 1167 1168 0 91
 1163 0 1169 421 1158 790 1170 0 81 1 1164 435 871 301 1166 1170 1158 1171 1172
 82 1 1165 3702 81 3 1166 433 898 301 0 1164 1160 1173 1174 1175 0 91 1170 0 116
9 301 1164 780 1176 1163 81 1 1171 438 871 19 1173 1176 1164 838 1177 82 1 1172
 3702 81 3 1173 436 898 19 0 1171 1166 1178 1179 1180 0 91 1176 0 1169 19 1171 7
85 0 1170 81 1 838 841 871 316 1178 836 1171 1035 1181 82 1 1177 3702 81 3 1178
 825 898 316 0 838 1173 1182 1183 1184 0 81 1 1035 842 871 403 1182 818 838 1028
 1185 82 1 1181 3883 81 3 1182 827 898 403 0 1035 1178 1031 1186 1187 0 81 1 818
 869 584 403 1035 813 833 801 0 82 1 1185 3883 81 1 801 870 584 413 1151 797 818
 812 0 81 1 812 871 584 408 1144 808 801 796 0 81 1 796 872 584 416 1028 791 812
 780 0 81 1 780 873 584 301 1170 775 796 790 0 81 1 790 874 584 421 1163 786 780
 641 0 81 1 641 1115 584 376 892 636 790 649 0 80 3 898 1188 1189 9000 0 0 0 0 3
 6 0 0 0 FFFFTFTTFFFFFF1 1 3 81 3 1031 829 898 416 0 1028 1182 1027 1190 1191 0
 82 1 1186 1 82 1 1187 34 82 1 1190 1 82 1 1191 35 79 255 27 1189 MONIKER/MONIKE
R_DATA_ATTRIB82 1 1183 1 82 1 1184 33 90 1169 439 1192 1 1150 888 9 1163 81 1 78
5 446 584 19 1176 781 1193 807 0 81 1 1193 44 584 319 1194 763 0 785 0 81 1 807
 449 584 411 1157 802 785 828 0 81 1 1194 40 871 319 1195 1193 0 889 1196 91 763
 0 888 319 1193 758 0 887 90 888 441 1197 1 1169 1198 9 890 81 2 1197 442 1199 8
88 0 0 1192 1200 1201 0 81 5 1198 443 1202 1 888 1203 0 1204 1205 0 1206 1207 12
08 91 890 0 888 306 880 757 887 0 81 1 880 42 871 306 1209 890 889 877 1210 81 1
 757 1734 584 306 890 752 618 575 0 81 1 618 1733 584 252 1012 615 558 757 0 81
 1 575 1736 584 565 37 568 757 603 0 91 37 0 35 565 960 575 31 1012 90 35 1723 1
211 1 1204 1024 9 606 91 1012 0 35 252 976 618 37 606 91 606 0 35 263 964 603 10
12 0 81 2 1211 1724 1199 35 0 0 1200 1023 1212 0 81 5 1204 1603 1202 1 1203 35 1
198 1024 1213 0 1214 1215 0 81 5 1024 1725 1202 1 35 26 1204 1025 1216 0 1217 12
18 0 80 5 1202 1199 1219 9000 0 0 0 0 3 6 0 0 0 TTTFFFFFFFFFFF1 1 2 1 2 81 5 102
5 1831 1202 1 26 1220 1024 0 1221 0 1222 1223 1224 82 9 1216 1 5141 62 1 1 1 1 0
 0 83 2 1217 0 0 82 1 1218 1073811460 81 3 1220 1832 11 1 1025 1225 0 1225 1226
 1227 1228 82 9 1221 1 4718 62 1 1 1 1 0 0 83 2 1222 0 0 82 1 1223 1107496972 83
 1 1224 -.0501 80 3 11 1229 1230 9000 0 0 0 0 3 6 0 0 0 FFTFFFFFFFFFFF3 3 1 81 3
 1225 1833 11 1 1220 1231 1220 1231 1232 1233 1234 84 255 38 1226 {45299e47-c58b
-4fee-9156-e195ee4588e5}84 2 1227 SE82 1 1228 0 81 3 1231 1834 11 1 1225 1235 12
25 1235 1236 1237 1238 84 38 1232 {7a6e7963-09c6-4cfa-95fb-c26bc269a7f4}84 2 123
3 SE82 1 1234 1 81 3 1235 1835 11 1 1231 1239 1231 1239 1240 1241 1242 84 38 123
6 {a092d528-ac4c-40eb-bbf5-1bbf17b93519}84 2 1237 SE82 1 1238 2 81 3 1239 1836 1
1 1 1235 1243 1235 1243 1244 1245 1246 84 38 1240 {d1b53fb5-9aec-482d-8825-cbe3c
7fbe2da}84 2 1241 SE82 1 1242 3 81 3 1243 1837 11 1 1239 12 1239 12 1247 1248 12
49 84 38 1244 {4f05a69e-27b0-4fba-8518-843050dfbfd3}84 2 1245 SE82 1 1246 4 81 3
 12 1838 11 1 1243 2 1243 2 1250 1251 1252 84 38 1247 {f17d8d12-b0d9-4a4f-973e-c
07df94ebfb5}84 2 1248 SE82 1 1249 5 84 38 1250 {deda95e6-44be-41a4-bc78-4453b292
c1ea}84 2 1251 SE82 1 1252 7 79 25 1230 MONIKER/GUID_TABLE_ATTRIB79 21 1219 Soli
dEdge/PatternData90 1203 1601 1200 1 1198 1204 9 590 82 9 1213 1 5450 62 1 1 1 1
 0 0 83 2 1214 0 0 82 1 1215 1073811460 81 2 1200 1602 1199 1203 0 0 1197 1211 1
253 0 91 590 0 1203 314 957 567 0 0 80 2 1199 1254 1255 9000 0 0 0 0 3 6 0 0 0 T
TTTTTTTTFFFTT1 1 82 3 1253 2 5450 0 79 27 1255 SolidEdge/PatternOccurrence81 2 1
023 1830 1199 26 0 0 1211 0 1256 0 82 3 1212 2 5141 0 82 3 1256 2 4718 0 81 1 55
8 1547 584 224 914 553 504 618 0 81 3 1209 38 898 306 0 880 1257 879 1258 1259 0
 81 1 889 41 871 302 1257 887 1194 880 1260 82 1 1210 3621 81 3 1257 36 898 302
 0 889 1195 1209 1261 1262 0 82 1 1260 3621 81 3 1195 33 898 319 0 1194 0 1257 1
263 1264 0 82 1 1261 0 82 1 1262 1 82 1 1263 0 82 1 1264 0 81 3 879 341 898 307
 0 877 1209 876 1265 1266 0 82 1 1258 0 82 1 1259 2 81 3 876 345 898 331 0 873 8
79 872 1267 1268 0 82 1 1265 1 82 1 1266 0 81 3 872 348 898 329 0 866 876 1059 1
269 1270 0 82 1 1267 1 82 1 1268 1 81 3 1059 353 898 338 0 874 872 1057 1271 127
2 0 82 1 1269 1 82 1 1270 2 82 1 1271 1 82 1 1272 3 82 9 1205 1 3702 60 1 0 0 10
 10 1 83 2 1206 .0034 .1 82 10 1207 1074791425 1108345857 1108345857 1108345857
 1108345857 1108345857 1108345857 1108345857 1108345857 1108345857 83 9 1208 -.0
034 -.0068 -.0102 -.0136 -.017 -.0204 -.0238 -.0272 -.0306 81 2 1192 440 1199 11
69 0 0 1273 1197 1274 0 82 3 1201 2 3702 0 81 2 1273 429 1199 1150 0 0 1275 1192
 1276 0 82 3 1274 2 3702 9 90 1150 428 1273 1 1132 1169 9 1144 81 2 1275 418 119
9 1132 0 0 1277 1273 1278 0 82 3 1276 2 3702 8 90 1132 417 1275 1 845 1150 9 835
 81 2 1277 407 1199 845 0 0 1279 1275 1280 0 82 3 1278 2 3702 7 90 845 406 1277
 1 849 1132 9 1112 81 2 1279 396 1199 849 0 0 1281 1277 1282 0 82 3 1280 2 3702
 6 90 849 395 1279 1 853 845 9 892 81 2 1281 385 1199 853 0 0 1283 1279 1284 0 8
2 3 1282 2 3702 5 90 853 384 1281 1 857 849 9 1084 81 2 1283 374 1199 857 0 0 10
56 1281 1285 0 82 3 1284 2 3702 4 90 857 373 1283 1 861 853 9 1069 81 2 1056 363
 1199 861 0 0 868 1283 1286 0 82 3 1285 2 3702 3 81 2 868 352 1199 865 0 0 0 105
6 1287 0 82 3 1286 2 3702 2 82 3 1287 2 3702 1 82 1 1196 3621 82 1 1179 1 82 1 1
180 26 82 1 1174 1 82 1 1175 25 82 1 1167 1 82 1 1168 24 82 1 1161 1 82 1 1162 2
3 82 1 1155 1 82 1 1156 22 82 1 1148 1 82 1 1149 21 82 1 1142 1 82 1 1143 20 81
 1 823 867 584 400 1133 819 836 833 0 82 1 1137 1 82 1 1138 19 82 1 1130 1 82 1
 1131 18 82 1 1125 1 82 1 1126 17 82 1 1120 1 82 1 1121 16 81 1 488 1216 584 237
 1112 484 839 526 0 82 1 1116 1 82 1 1117 15 82 1 1110 1 82 1 1111 14 82 1 1105
 1 82 1 1106 13 82 1 1101 1 82 1 1102 12 82 1 1097 1 82 1 1098 11 81 1 655 1117
 584 369 855 650 649 667 0 81 1 667 1118 584 364 1084 662 655 675 0 82 1 1092 1
 82 1 1093 10 82 1 1088 1 82 1 1089 9 82 1 1082 1 82 1 1083 8 81 1 681 1120 584
 356 859 676 675 693 0 81 1 693 1121 584 351 1069 688 681 701 0 82 1 1077 1 82 1
 1078 7 82 1 1073 1 82 1 1074 6 82 1 1067 1 82 1 1068 5 82 1 1063 3702 82 1 1061
 1 82 1 1062 4 81 3 883 1105 898 304 0 882 1048 893 1288 1289 0 82 1 1052 1 82 1
 1053 41 82 1 1288 1 82 1 1289 42 82 1 1049 1 82 1 1050 40 82 1 1045 1 82 1 1046
 39 82 1 1040 1 82 1 1041 38 82 1 1036 3883 82 1 1033 1 82 1 1034 37 82 1 1013 8
 82 24 1014 0 3 1 3 0 0 3 0 1 1 1 1 2 1 2 1 16 1 1683 1 1705 0 0 0 83 20 1015 .0
06 .0127 .0127 82 .0127 .0127 0 .018 14 0 6 4.917 4.773 .1 0 0 0 .04363323129985
825 .1 1 98 2 1016 77 54 87 2 1017 0 0 0 1 0 0 79 32 1011 SolidEdge/StartHoleThr
ead_u_info81 3 1002 1822 898 10 0 1290 998 0 1291 1292 0 82 1 1003 8 82 1 1004 3
 81 1 1290 1823 586 10 1002 1293 1294 0 1295 82 1 1291 8 82 1 1292 4 80 1 586 12
96 1297 9000 0 0 0 0 3 6 0 0 0 FFFFTFTTFFFFFF1 81 1 1293 1824 1298 10 1290 1299
 1300 0 1301 81 1 1294 1717 586 25 982 1300 70 1290 1302 82 1 1295 9 81 3 982 17
16 898 25 0 1294 977 588 1303 1304 0 81 1 1300 1718 1298 25 1294 1305 0 1293 130
6 81 1 70 1496 586 68 0 0 78 1294 1307 82 1 1302 9 81 1 78 1354 586 76 0 0 85 70
 1308 82 1 1307 17 81 1 85 1290 586 75 0 0 213 78 1309 82 1 1308 17 81 1 213 337
 586 211 0 0 206 85 1310 82 1 1309 17 81 1 206 305 586 204 0 0 199 213 1311 82 1
 1310 17 81 1 199 273 586 197 0 0 192 206 1312 82 1 1311 17 81 1 192 241 586 190
 0 0 185 199 1313 82 1 1312 17 81 1 185 209 586 183 0 0 178 192 1314 82 1 1313 1
7 81 1 178 177 586 176 0 0 171 185 1315 82 1 1314 17 81 1 171 145 586 169 0 0 16
4 178 1316 82 1 1315 17 81 1 164 113 586 162 0 0 157 171 1317 82 1 1316 17 81 1
 157 81 586 152 0 0 154 164 1318 82 1 1317 17 81 1 154 21 586 148 0 0 0 157 1319
 82 1 1318 17 82 1 1319 17 80 1 1298 871 1320 9000 0 0 0 0 3 6 0 0 0 FFFFFFTFFFF
FFF1 81 1 1305 1719 1321 25 1300 36 0 1299 0 82 1 1306 5142 80 1 1321 1322 1323
 8032 0 0 0 0 3 6 0 0 0 FFFFFFTFFFFFFF3 81 2 36 1720 1324 25 1305 31 0 27 0 0 81
 1 1299 1825 1321 10 1293 27 1305 0 0 81 2 27 1826 1324 10 1299 23 36 0 0 0 80 2
 1324 1325 1326 9000 2 2 2 2 3 5 0 0 0 TTTTTTTTTFFFTT1 1 79 34 1326 SolidEdge/Ho
leThreadSplitEdge_info79 22 1323 SDL/TYSA_EDGE_NO_MERGE79 27 1320 SolidEdge/MNKR
_ATTR_ALT_CID82 1 1303 7 82 1 1304 4 82 1 1301 4720 79 27 1297 SolidEdge/MNKR_AT
TR_TYPE_EX82 1 999 8 82 1 1000 0 82 1 993 8 82 1 994 2 82 1 985 8 82 24 986 0 3
 1 3 0 0 3 0 1 1 1 1 2 1 1 1 16 1 1683 1 1705 0 0 0 83 20 987 .006 .0127 .0127 8
2 .0127 .0127 0 .018 14 0 6 4.917 4.773 .1 0 0 0 .04363323129985825 .1 1 98 2 98
8 77 54 87 2 989 0 0 0 1 0 0 82 1 983 7 82 1 984 3 82 1 978 7 82 1 979 0 82 1 97
2 7 82 1 973 2 82 1 965 8 82 23 966 0 0 0 0 0 0 3 0 1 1 0 1 2 1 2 1 16 0 1 1584
 0 0 0 83 20 967 .002 .0127 .0127 82 .0127 .0127 0 .0508 2 0 0 0 0 .1 0 0 0 .043
63323129985825 .1 1 87 2 968 0 0 0 1 0 0 82 1 961 5 82 1 962 0 82 1 955 4 82 1 9
56 2 82 1 950 4 82 1 951 1 81 1 624 1543 584 260 934 619 536 493 0 82 1 945 4 82
 1 946 0 82 1 940 1 82 1 941 36 82 1 935 3 82 1 936 6 82 1 930 3 82 1 931 5 82 1
 925 3 82 1 926 4 82 1 920 1 82 1 921 36 82 1 915 3 82 1 916 3 82 1 910 3 82 1 9
11 2 82 1 905 3 82 1 906 0 82 1 900 2 82 1 901 0 79 23 897 SolidEdge/MNKR_ATTR_C
ID82 1 886 4134 82 1 881 3702 82 1 878 3702 82 1 875 3702 81 2 869 32 1327 1 0 8
65 0 0 1328 1329 80 2 1327 11 1330 9000 2 2 2 2 3 6 0 0 0 FFTFFFFFFFFFFF2 3 83 2
 1328 1 20 84 19 1329 SE 106.0.2.5 Type8679 22 1330 MONIKER/BODY_ID_ATTRIB83 1 8
31 .100000001490116 83 3 830 .643137276172638 .678431391716003 .69803923368454 8
3 1 826 .100000001490116 83 3 825 .643137276172638 .678431391716003 .69803923368
454 83 3 820 .643137276172638 .678431391716003 .69803923368454 83 1 815 .1000000
01490116 83 3 814 .643137276172638 .678431391716003 .69803923368454 83 1 810 .10
0000001490116 83 3 809 .643137276172638 .678431391716003 .69803923368454 83 1 80
4 .100000001490116 83 3 803 .643137276172638 .678431391716003 .69803923368454 83
 3 798 .643137276172638 .678431391716003 .69803923368454 83 1 793 .1000000014901
16 83 3 792 .643137276172638 .678431391716003 .69803923368454 83 1 788 .10000000
1490116 83 3 787 .643137276172638 .678431391716003 .69803923368454 83 3 782 .643
137276172638 .678431391716003 .69803923368454 83 1 777 .100000001490116 83 3 776
 .643137276172638 .678431391716003 .69803923368454 83 1 772 .100000001490116 83
 3 771 .643137276172638 .678431391716003 .69803923368454 83 1 766 .1000000014901
16 83 3 765 .643137276172638 .678431391716003 .69803923368454 83 1 760 .10000000
1490116 83 3 759 .643137276172638 .678431391716003 .69803923368454 83 1 754 .100
000001490116 83 3 753 .643137276172638 .678431391716003 .69803923368454 83 1 748
 .100000001490116 83 3 747 .643137276172638 .678431391716003 .69803923368454 83
 1 742 .100000001490116 83 3 741 .643137276172638 .678431391716003 .698039233684
54 83 1 736 .100000001490116 83 3 735 .643137276172638 .678431391716003 .6980392
3368454 83 1 730 .100000001490116 83 3 729 .643137276172638 .678431391716003 .69
803923368454 15 726 990 0 1331 309 1332 17 1331 0 726 1331 1331 0 126 122 0 0 -1
5 1332 991 0 119 309 0 17 119 0 1332 119 119 0 1333 114 0 0 +17 1333 0 342 1333
 1333 0 119 114 0 0 -15 342 931 0 1333 338 1334 15 1334 94 0 1335 338 0 17 1335
 0 1334 1335 1335 0 165 162 0 0 -17 165 0 1336 165 165 0 1335 162 0 0 +15 1336 1
09 0 165 341 0 17 126 0 334 126 126 0 1331 122 0 0 +15 334 948 0 126 331 1337 15
 1337 69 0 161 331 0 17 161 0 1337 161 161 0 1338 159 0 0 +17 1338 0 337 1338 13
38 0 161 159 0 0 -15 337 76 0 1338 329 1339 15 1339 77 0 158 329 0 17 158 0 1339
 158 158 0 1340 152 0 0 +17 1340 0 1341 1340 1340 0 158 152 0 0 -15 1341 62 0 13
40 307 0 83 1 723 .100000001490116 83 3 721 .643137276172638 .678431391716003 .6
9803923368454 83 1 716 .100000001490116 83 3 715 .643137276172638 .6784313917160
03 .69803923368454 83 1 710 .100000001490116 83 3 709 .643137276172638 .67843139
1716003 .69803923368454 83 1 704 .100000001490116 83 3 703 .643137276172638 .678
431391716003 .69803923368454 15 700 1000 0 1342 346 1343 17 1342 0 700 1342 1342
 0 121 117 0 0 -15 1343 1001 0 113 346 0 17 113 0 1343 113 113 0 1344 108 0 0 +1
7 1344 0 355 1344 1344 0 113 108 0 0 -15 355 919 0 1344 351 1345 15 1345 126 0 1
346 351 0 17 1346 0 1345 1346 1346 0 172 169 0 0 -17 172 0 1347 172 172 0 1346 1
69 0 0 +15 1347 141 0 172 354 0 17 121 0 347 121 121 0 1342 117 0 0 +15 347 936
 0 121 343 1348 15 1348 101 0 168 343 0 17 168 0 1348 168 168 0 1349 166 0 0 +17
 1349 0 350 1349 1349 0 168 166 0 0 -15 350 108 0 1349 341 1336 83 1 697 .100000
001490116 83 3 695 .643137276172638 .678431391716003 .69803923368454 83 1 690 .1
00000001490116 83 3 689 .643137276172638 .678431391716003 .69803923368454 83 1 6
84 .100000001490116 83 3 683 .643137276172638 .678431391716003 .69803923368454 8
3 1 678 .100000001490116 83 3 677 .643137276172638 .678431391716003 .69803923368
454 15 674 1010 0 1350 359 1351 17 1350 0 674 1350 1350 0 116 111 0 0 -15 1351 1
011 0 107 359 0 17 107 0 1351 107 107 0 1352 104 0 0 +17 1352 0 368 1352 1352 0
 107 104 0 0 -15 368 907 0 1352 364 1353 15 1353 158 0 1354 364 0 17 1354 0 1353
 1354 1354 0 179 176 0 0 -17 179 0 1355 179 179 0 1354 176 0 0 +15 1355 173 0 17
9 367 0 17 116 0 360 116 116 0 1350 111 0 0 +15 360 924 0 116 356 1356 15 1356 1
33 0 175 356 0 17 175 0 1356 175 175 0 1357 173 0 0 +17 1357 0 363 1357 1357 0 1
75 173 0 0 -15 363 140 0 1357 354 1347 83 1 671 .100000001490116 83 3 669 .64313
7276172638 .678431391716003 .69803923368454 83 1 664 .100000001490116 83 3 663 .
643137276172638 .678431391716003 .69803923368454 83 1 658 .100000001490116 83 3
 657 .643137276172638 .678431391716003 .69803923368454 83 1 652 .100000001490116
 83 3 651 .643137276172638 .678431391716003 .69803923368454 15 648 1015 0 1358 3
10 1359 17 1358 0 648 1358 1358 0 110 100 0 0 -15 1359 1016 0 103 310 0 17 103 0
 1359 103 103 0 1360 101 0 0 +17 1360 0 380 1360 1360 0 103 101 0 0 -15 380 894
 0 1360 376 1361 15 1361 190 0 1362 376 0 17 1362 0 1361 1362 1362 0 186 183 0 0
 -17 186 0 1363 186 186 0 1362 183 0 0 +15 1363 205 0 186 383 0 17 110 0 372 110
 110 0 1358 100 0 0 +15 372 912 0 110 369 1364 15 1364 165 0 182 369 0 17 182 0
 1364 182 182 0 1365 180 0 0 +17 1365 0 375 1365 1365 0 182 180 0 0 -15 375 172
 0 1365 367 1355 83 1 645 .100000001490116 83 3 643 .643137276172638 .6784313917
16003 .69803923368454 83 1 638 .100000001490116 83 3 637 .643137276172638 .67843
1391716003 .69803923368454 83 1 632 .100000001490116 83 3 631 .643137276172638 .
678431391716003 .69803923368454 83 3 626 .643137276172638 .678431391716003 .6980
3923368454 83 1 621 .100000001490116 83 3 620 .643137276172638 .678431391716003
 .69803923368454 83 3 616 .643137276172638 .678431391716003 .69803923368454 83 1
 611 .0500000007450581 15 605 1703 0 39 263 1366 51 262 1693 0 263 265 566 0 +0
 0 0 -1 0 0 .0024585 0 0 -1 50 265 1694 0 565 254 262 0 +-.018 0 0 -1 0 0 0 0 1
 51 566 1594 0 314 262 246 0 +0 0 0 -1 0 0 .001 0 0 -1 50 246 1520 0 231 566 232
 0 +-.0343 0 0 -1 0 0 0 0 1 50 232 1519 0 227 246 239 0 +-.0355 0 0 -1 0 0 0 0 1
 17 39 0 605 39 39 0 32 25 0 0 -15 1366 1690 0 1367 263 0 17 1367 0 1366 1367 13
67 0 51 47 0 0 -17 51 0 323 51 51 0 1367 47 0 0 +15 323 1650 0 51 306 1368 15 13
68 18 0 1369 306 0 17 1369 0 1368 1369 1369 0 155 148 0 0 -17 155 0 1370 155 155
 0 1369 148 0 0 +15 1370 26 0 155 319 0 83 3 602 .184313729405403 .7490196228027
34 .580392181873322 79 16 599 SolidEdge/Styles79 17 587 SolidEdge/Display79 15 5
83 SDL/TYSA_COLOUR83 1 578 .100000001490116 83 3 577 .643137276172638 .678431391
716003 .69803923368454 15 574 1665 0 63 565 1371 17 63 0 574 63 63 0 1372 52 0 0
 +15 1371 1666 0 1373 565 0 17 1373 0 1371 1373 1373 0 1374 44 0 0 -17 1374 0 13
75 1374 1374 0 1373 44 0 0 +16 44 1657 0 ?1374 68 52 43 0 0 1 15 1375 1642 0 137
4 314 0 17 1372 0 261 1372 1372 0 63 52 0 0 -15 261 1689 0 1372 252 38 15 38 170
2 0 32 252 0 83 1 571 .100000001490116 83 3 569 .643137276172638 .67843139171600
3 .69803923368454 15 49 1748 0 46 314 1375 83 1 562 .100000001490116 83 3 560 .6
43137276172638 .678431391716003 .69803923368454 83 1 555 .100000001490116 83 3 5
54 .643137276172638 .678431391716003 .69803923368454 15 551 1372 0 220 315 1376
 50 250 1382 0 315 239 535 0 +-.0378 0 0 -1 0 0 0 0 1 50 535 1381 0 296 250 293
 0 +-.0408 0 0 -1 0 0 0 0 1 51 293 1380 0 533 535 290 0 +-.0378 0 0 -1 0 0 .008
 0 0 1 17 220 0 551 220 220 0 1377 41 0 0 +15 1376 1373 0 1378 315 0 17 1378 0 1
376 1378 1378 0 74 72 0 0 -17 74 0 543 74 74 0 1378 72 0 0 +15 543 1368 0 74 533
 1379 15 1379 1369 0 1380 533 0 17 1380 0 1379 1380 1380 0 79 76 0 0 -17 79 0 13
81 79 79 0 1380 76 0 0 +15 1381 1377 0 79 296 0 17 1377 0 225 1377 1377 0 220 41
 0 0 -15 225 1342 0 1377 224 0 83 1 548 .100000001490116 83 3 546 .6431372761726
38 .678431391716003 .69803923368454 83 1 540 .100000001490116 83 3 538 .64313727
6172638 .678431391716003 .69803923368454 15 534 1376 0 89 296 1381 17 89 0 534 8
9 89 0 1382 87 0 0 +17 1382 0 1383 1382 1382 0 89 87 0 0 -15 1383 1240 0 1382 28
8 0 83 1 530 .100000001490116 83 3 528 .643137276172638 .678431391716003 .698039
23368454 83 1 523 .100000001490116 83 3 522 .643137276172638 .678431391716003 .6
9803923368454 83 3 517 .643137276172638 .678431391716003 .69803923368454 83 1 51
2 .100000001490116 83 3 511 .643137276172638 .678431391716003 .69803923368454 83
 1 507 .100000001490116 83 3 506 .643137276172638 .678431391716003 .698039233684
54 83 1 501 .100000001490116 83 3 500 .643137276172638 .678431391716003 .6980392
3368454 83 3 495 .643137276172638 .678431391716003 .69803923368454 83 3 490 .643
137276172638 .678431391716003 .69803923368454 79 21 486 SDL/TYSA_TRANSLUCENCY83
 1 482 0 83 1 478 0 83 1 474 .100000001490116 83 1 473 0 79 21 468 SDL/TYSA_REFL
ECTIVITY17 454 0 451 454 454 0 137 130 0 0 -15 455 646 0 140 403 0 17 140 0 455
 140 140 0 1384 134 0 0 +17 1384 0 412 1384 1384 0 140 134 0 0 -15 412 572 0 138
4 408 1385 15 1385 286 0 1386 408 0 17 1386 0 1385 1386 1386 0 207 204 0 0 -17 2
07 0 1387 207 207 0 1386 204 0 0 +15 1387 301 0 207 411 0 17 137 0 404 137 137 0
 454 130 0 0 +15 404 565 0 137 400 1388 15 1388 261 0 203 400 0 17 203 0 1388 20
3 203 0 1389 201 0 0 +17 1389 0 407 1389 1389 0 203 201 0 0 -15 407 268 0 1389 3
98 465 83 1 453 .100000001490116 17 448 0 445 448 448 0 142 138 0 0 -15 449 636
 0 145 416 0 17 145 0 449 145 145 0 1390 105 0 0 +17 1390 0 423 1390 1390 0 145
 105 0 0 -15 423 584 0 1390 421 435 17 142 0 417 142 142 0 448 138 0 0 +15 417 5
77 0 142 413 1391 15 1391 293 0 210 413 0 17 210 0 1391 210 210 0 1392 208 0 0 +
17 1392 0 420 1392 1392 0 210 208 0 0 -15 420 300 0 1392 411 1387 83 1 447 .1000
00001490116 83 1 443 .100000001490116 83 1 428 .100000001490116 15 394 236 0 139
3 247 1394 17 1393 0 394 1393 1393 0 196 194 0 0 -15 1394 237 0 193 247 0 17 193
 0 1394 193 193 0 1395 190 0 0 +17 1395 0 1396 1395 1395 0 193 190 0 0 -15 1396
 222 0 1395 237 0 17 196 0 391 196 196 0 1393 194 0 0 +15 391 229 0 196 388 466
 15 386 204 0 1397 383 1363 17 1397 0 386 1397 1397 0 189 187 0 0 -17 189 0 1398
 189 189 0 1397 187 0 0 +15 1398 197 0 189 379 0 15 384 1152 0 96 379 1398 17 96
 0 384 96 96 0 1399 90 0 0 +17 1399 0 303 1399 1399 0 96 90 0 0 -15 303 1176 0 1
399 298 1400 15 1400 1177 0 93 298 0 17 93 0 1400 93 93 0 1401 91 0 0 +17 1401 0
 248 1401 1401 0 93 91 0 0 -15 248 1140 0 1401 237 1396 15 330 943 0 1402 307 13
41 17 1402 0 330 1402 1402 0 124 94 0 0 -17 124 0 1403 124 124 0 1402 94 0 0 +15
 1403 981 0 124 304 0 15 326 24 0 1404 319 1370 17 1404 0 326 1404 1404 0 151 14
9 0 0 -17 151 0 1405 151 151 0 1404 149 0 0 +15 1405 7 0 151 302 0 15 320 887 0
 99 302 1405 17 99 0 320 99 99 0 1406 97 0 0 +17 1406 0 308 1406 1406 0 99 97 0
 0 -15 308 980 0 1406 304 1403 15 297 1280 0 218 288 1383 17 218 0 297 218 218 0
 1407 83 0 0 +17 1407 0 289 1407 1407 0 218 83 0 0 -15 289 1306 0 1407 282 1408
 15 1408 1307 0 82 282 0 17 82 0 1408 82 82 0 291 80 0 0 +17 291 0 283 291 291 0
 82 80 0 0 -83 1 287 .100000001490116 15 57 1771 0 54 266 1409 50 264 1800 0 266
 0 254 0 +-.0451 661309271539572e-33 0 1 -612323399573677e-31 0 612323399573677e
-31 1 0 15 1409 1772 0 50 266 0 17 50 0 1409 50 50 0 46 45 0 0 -83 1 270 .050000
0007450581 17 58 0 253 58 58 0 54 48 0 0 -15 29 1808 0 24 17 0 83 1 259 .1000000
01490116 83 1 244 .100000001490116 19 18 311 0 1 0 9 6 S0 74 4 CI16 index_map_of
fset0 0 1 dCCZ20 16 15 0 1410 1290 869 1002 995 585 1023 1025 997 1293 1299 27 2
 596 576 572 0 0 0 0 0 74 20 1410 1 0 0 271 0 0 0 0 0 0 0 0 0 0 0 0 0 0 0 0 0 0
 0 84 38 13 {5ba01432-ce26-4c52-b3e8-293637c9b635}84 2 14 SE82 1 15 8 1 0 
